<?xml version="1.0" encoding="UTF-8"?>
<svg id="_Слой_1" data-name="Слой 1" xmlns="http://www.w3.org/2000/svg" viewBox="0 0 351.81 351.38">
  <defs>
    <style>
      .cls-1 {
        fill: #fff;
      }
    </style>
  </defs>
  <path class="cls-1" d="M351.8,109.32c-.05-2.73.06-5.61-.18-8.73-.19-2.51-.41-4.71-.66-6.61-.62-4.69-1.76-9.52-3.42-14.47-6.67-19.93-22.28-34.97-41.57-43.22-10.61-4.54-22.18-7.15-33.7-8.28-5.72-.56-9.86-.85-12.41-.88-4.63-.05-9.64-.06-15.04-.03-1.86.01-3.62.19-6.15.28-14.48.51-28.76,2.25-42.83,5.23-6.97,1.47-13.55,3.33-19.75,5.58-.1.03-.18.04-.24,0-.14-.07-.18-.17-.13-.31,2.31-6.77,4.91-14.39,7.81-22.85.1-.28-.03-.59-.3-.71-6.75-3.16-13.91-5.63-21.46-7.43-14.55-3.46-29.22-5.59-44.01-6.36C108.74.05,100.54-.1,93.14.07c-8.8.2-17.5,1.12-26.1,2.76-9.38,1.79-18.25,4.78-26.63,8.97-12.07,6.03-23.35,16.09-30.22,27.86-4.06,6.95-6.85,14.23-8.37,21.84C-.05,70.85-.48,80.68.53,90.98c.8,8.18,2.64,15.67,5.5,22.46,2.79,6.63,6.87,12.53,11.37,18.03,6,7.33,12.98,13.76,20.94,19.3,7.75,5.38,16.31,10.35,25.68,14.89,3.77,1.83,9.04,4.14,15.79,6.94,9.5,3.93,18.75,8.38,28.29,13.31,8.68,4.48,16.68,9.5,23.93,15.64,4.51,3.81,7.88,7.16,10.11,10.04,4.52,5.84,7.23,12.59,8.13,20.23.2,1.72.37,3.62.49,5.69.1,1.69-.05,4.4-.47,8.15-.72,6.5-2.86,12.62-6.45,18.18-7.65,11.83-19.66,19.09-33.31,22.44-7.1,1.75-14.37,2.8-21.81,3.14-1.78.08-2.76.14-2.94.16-.7.09-1.68.14-2.94.13-1.17,0-2.87,0-5.11,0-.24,0-.46.13-.58.34l-19.21,33.28s-.02.04-.02.07c0,.08.06.15.14.15,6.93.39,11.86.62,14.77.7,1.04.03,5.6.04,13.68.03,3.76,0,7.82-.33,11.23-.6,24.8-1.95,50.93-10.5,68.67-28.64.25-.25.53-.6.84-1.04.03-.04.07-.08.12-.09.13-.05.27.02.32.15,12.73,35.32,47.5,52.83,83.07,56.37,5.03.5,9.94.82,14.73.97.02,0,.03,0,.05,0,.08-.03.12-.11.1-.19l-11.22-35.01c-.09-.29-.35-.5-.65-.54-9.62-1.22-19.18-3.52-27.82-8.23-11.49-6.26-20.84-17.1-23.61-30.04-1.68-7.85-1.66-15.65.04-23.17.87-3.83,2.27-7.47,4.2-10.91,3.01-5.35,7.64-9.93,12.42-14.02,6.84-5.84,14.26-10.75,22.91-15.33,8.31-4.4,15.99-8.14,23.05-11.24,1.66-.73,6.8-2.92,15.4-6.59,7.91-3.37,15.94-7.51,24.09-12.4,6.39-3.84,12.02-7.8,16.88-11.87,6.59-5.51,12.62-12.12,18.06-19.82,6.74-9.53,10.41-20.62,11.75-32.22.32-2.73.72-7.22.66-10.48ZM312.9,111.24c-1.33,10.12-5.83,17.95-13.25,24.88-7.53,7.03-16.14,13.13-25.85,18.31-8.7,4.64-15.14,7.97-19.34,9.98-6.7,3.21-14.21,6.74-22.52,10.57-2.82,1.3-6.94,3.5-12.36,6.58-9.26,5.27-17.01,10.41-23.26,15.4-4.15,3.31-7.93,6.78-11.35,10.41-.02.02-.04.03-.06.04-.08.03-.17-.01-.19-.09-1.54-4.24-3.62-8.35-6.22-12.33-7.15-10.93-16.14-20.3-26.95-28.11-11.48-8.29-23.6-15.34-36.34-21.16-10.15-4.63-18.96-8.86-26.42-12.69-8.4-4.31-14.7-7.78-18.91-10.4-6.04-3.77-11.75-8.12-17.14-13.06-2.25-2.07-4.17-4.11-5.76-6.12-4.46-5.66-7.16-12.19-8.09-19.59-1.48-11.72,1.51-22.05,8.96-30.96,7.68-9.19,18.2-14.52,29.99-16.6,7.99-1.41,16.02-1.94,24.11-1.59,2.45.11,3.77.16,3.95.15,2.66-.07,4.54.18,7.92.39,2.12.13,3.44.22,3.98.27,15.72,1.43,30.97,4.69,45.77,9.76,2.67.92,4.75,1.74,6.25,2.47.37.18.66.58.86,1.19.54,1.65,3.38,9.96,8.52,24.95.18.54.39.98.61,1.33.16.25.47.34.74.22,9.06-4.11,19.27-6.87,28.93-9.05,10.87-2.45,21.68-3.75,32.68-4.37,1.43-.08,2.78-.12,4.05-.13.5,0,1.85-.06,4.06-.17,2.55-.13,5.28-.13,8.18,0,3.16.14,5.88.32,8.16.55,5.67.55,11.06,1.67,16.15,3.34,8.04,2.64,14.86,7.11,20.45,13.41,6.41,7.21,9.81,15.66,10.19,25.36.06,1.58-.1,3.86-.5,6.86Z"/>
</svg>