<?xml version="1.0" encoding="UTF-8"?>
<svg id="_Слой_1" data-name="Слой_1" xmlns="http://www.w3.org/2000/svg" version="1.1" viewBox="0 0 512 512">
  <!-- Generator: Adobe Illustrator 29.3.0, SVG Export Plug-In . SVG Version: 2.1.0 Build 146)  -->
  <path d="M431.9,189.6c0-2.7,0-5.6-.2-8.7-.2-2.5-.4-4.7-.7-6.6-.6-4.7-1.8-9.5-3.4-14.5-6.7-19.9-22.3-35-41.6-43.2-10.6-4.5-22.2-7.1-33.7-8.3-5.7-.6-9.9-.9-12.4-.9-4.6,0-9.6,0-15,0-1.9,0-3.6.2-6.1.3-14.5.5-28.8,2.3-42.8,5.2-7,1.5-13.6,3.3-19.7,5.6,0,0-.2,0-.2,0-.1,0-.2-.2-.1-.3,2.3-6.8,4.9-14.4,7.8-22.9,0-.3,0-.6-.3-.7-6.8-3.2-13.9-5.6-21.5-7.4-14.5-3.5-29.2-5.6-44-6.4-9-.5-17.2-.6-24.6-.5-8.8.2-17.5,1.1-26.1,2.8-9.4,1.8-18.3,4.8-26.6,9-12.1,6-23.4,16.1-30.2,27.9-4.1,7-6.8,14.2-8.4,21.8-1.9,9.4-2.3,19.2-1.3,29.5.8,8.2,2.6,15.7,5.5,22.5,2.8,6.6,6.9,12.5,11.4,18,6,7.3,13,13.8,20.9,19.3,7.7,5.4,16.3,10.3,25.7,14.9,3.8,1.8,9,4.1,15.8,6.9,9.5,3.9,18.7,8.4,28.3,13.3,8.7,4.5,16.7,9.5,23.9,15.6,4.5,3.8,7.9,7.2,10.1,10,4.5,5.8,7.2,12.6,8.1,20.2.2,1.7.4,3.6.5,5.7.1,1.7,0,4.4-.5,8.1-.7,6.5-2.9,12.6-6.5,18.2-7.7,11.8-19.7,19.1-33.3,22.4-7.1,1.7-14.4,2.8-21.8,3.1-1.8,0-2.8.1-2.9.2-.7,0-1.7.1-2.9.1-1.2,0-2.9,0-5.1,0-.2,0-.5.1-.6.3l-19.2,33.3s0,0,0,0c0,0,0,.1.1.2,6.9.4,11.9.6,14.8.7,1,0,5.6,0,13.7,0,3.8,0,7.8-.3,11.2-.6,24.8-1.9,50.9-10.5,68.7-28.6.2-.3.5-.6.8-1,0,0,0,0,.1,0,.1,0,.3,0,.3.2,12.7,35.3,47.5,52.8,83.1,56.4,5,.5,9.9.8,14.7,1,0,0,0,0,0,0,0,0,.1-.1,0-.2l-11.2-35c0-.3-.3-.5-.6-.5-9.6-1.2-19.2-3.5-27.8-8.2-11.5-6.3-20.8-17.1-23.6-30-1.7-7.9-1.7-15.7,0-23.2.9-3.8,2.3-7.5,4.2-10.9,3-5.4,7.6-9.9,12.4-14,6.8-5.8,14.3-10.7,22.9-15.3,8.3-4.4,16-8.1,23-11.2,1.7-.7,6.8-2.9,15.4-6.6,7.9-3.4,15.9-7.5,24.1-12.4,6.4-3.8,12-7.8,16.9-11.9,6.6-5.5,12.6-12.1,18.1-19.8,6.7-9.5,10.4-20.6,11.7-32.2.3-2.7.7-7.2.7-10.5ZM393,191.6c-1.3,10.1-5.8,18-13.2,24.9-7.5,7-16.1,13.1-25.8,18.3-8.7,4.6-15.1,8-19.3,10-6.7,3.2-14.2,6.7-22.5,10.6-2.8,1.3-6.9,3.5-12.4,6.6-9.3,5.3-17,10.4-23.3,15.4-4.1,3.3-7.9,6.8-11.3,10.4,0,0,0,0,0,0,0,0-.2,0-.2,0-1.5-4.2-3.6-8.4-6.2-12.3-7.2-10.9-16.1-20.3-26.9-28.1-11.5-8.3-23.6-15.3-36.3-21.2-10.2-4.6-19-8.9-26.4-12.7-8.4-4.3-14.7-7.8-18.9-10.4-6-3.8-11.8-8.1-17.1-13.1-2.3-2.1-4.2-4.1-5.8-6.1-4.5-5.7-7.2-12.2-8.1-19.6-1.5-11.7,1.5-22,9-31,7.7-9.2,18.2-14.5,30-16.6,8-1.4,16-1.9,24.1-1.6,2.5.1,3.8.2,3.9.2,2.7,0,4.5.2,7.9.4,2.1.1,3.4.2,4,.3,15.7,1.4,31,4.7,45.8,9.8,2.7.9,4.8,1.7,6.2,2.5.4.2.7.6.9,1.2.5,1.6,3.4,10,8.5,25,.2.5.4,1,.6,1.3.2.2.5.3.7.2,9.1-4.1,19.3-6.9,28.9-9,10.9-2.5,21.7-3.8,32.7-4.4,1.4,0,2.8-.1,4.1-.1.5,0,1.8,0,4.1-.2,2.5-.1,5.3-.1,8.2,0,3.2.1,5.9.3,8.2.5,5.7.6,11.1,1.7,16.1,3.3,8,2.6,14.9,7.1,20.5,13.4,6.4,7.2,9.8,15.7,10.2,25.4,0,1.6-.1,3.9-.5,6.9Z"/>
</svg>